# AST/ASF file generated using VICON BodyLanguage
# -----------------------------------------------
:version 1.10
:name VICON
:units
  mass 1.0
  length 0.45
  angle deg
:documentation
   .ast/.asf automatically generated from VICON data using
   VICON BodyBuilder and BodyLanguage model FoxedUp or BRILLIANT.MOD
:root
   order TX TY TZ RX RY RZ
   axis XYZ
   position 0 0 0  
   orientation 0 0 0 
:bonedata
  begin
     id 1 
     name lhipjoint
     direction 0.570549 -0.739093 0.358072 
     length 2.41801 
     axis 0 0 0  XYZ
  end
  begin
     id 2 
     name lfemur
     direction 0.34202 -0.939693 0  
     length 7.44434  
     axis 0 0 20  XYZ
    dof rx ry rz
    limits (-160.0 20.0)
           (-70.0 70.0)
           (-60.0 70.0)
  end
  begin
     id 3 
     name ltibia
     direction 0.34202 -0.939693 0   
     length 7.60047   
     axis 0 0 20   XYZ
    dof rx
    limits (-10.0 170.0)
  end
  begin
     id 4 
     name lfoot
     direction 0.0909041 -0.249757 0.964032   
     length 2.03437   
     axis -90 7.62852e-016 20   XYZ
    dof rx rz
    limits (-45.0 90.0)
           (-70.0 20.0)
  end
  begin
     id 5 
     name ltoes
     direction 1.53547e-011 -4.2174e-011 1   
     length 1.02054   
     axis -90 7.62852e-016 20   XYZ
    dof rx
    limits (-90.0 20.0)
  end
  begin
     id 6 
     name rhipjoint
     direction -0.558096 -0.746754 0.361784   
     length 2.3932  
     axis 0 0 0  XYZ 
  end
  begin
     id 7 
     name rfemur
     direction -0.34202 -0.939693 0   
     length 7.3886   
     axis 0 0 -20   XYZ
    dof rx ry rz
    limits (-160.0 20.0)
           (-70.0 70.0)
           (-70.0 60.0)
  end
  begin
     id 8 
     name rtibia
     direction -0.34202 -0.939693 0   
     length 7.4839   
     axis 0 0 -20   XYZ
    dof rx
    limits (-10.0 170.0)
 end
 begin
     id 9 
     name rfoot
     direction -0.114619 -0.314914 0.942174   
     length 2.25127  
     axis -90 -7.62852e-016 -20   XYZ
    dof rx rz
    limits (-45.0 90.0)
           (-20.0 70.0)
  end
  begin
     id 10 
     name rtoes
     direction -1.53518e-011 -4.21881e-011 1   
     length 1.11821   
     axis -90 -7.62852e-016 -20   XYZ
    dof rx
    limits (-90.0 20.0)
  end
  begin
     id 11 
     name lowerback
     direction -0.00902269 0.996426 -0.0839821   
     length 2.25052   
     axis 0 0 0   XYZ
    dof rx ry rz
    limits (-20.0 45.0)
           (-30.0 30.0)
           (-30.0 30.0)
  end
  begin
     id 12 
     name upperback
     direction 0.0370973 0.999169 -0.0168941   
     length 2.24876   
     axis 0 0 0   XYZ
    dof rx ry rz
    limits (-20.0 45.0)
           (-30.0 30.0)
           (-30.0 30.0)
  end
  begin
     id 13 
     name thorax
     direction 0.0402726 0.998931 0.0227027   
     length 2.26408   
     axis 0 0 0   XYZ
    dof rx ry rz
    limits (-20.0 45.0)
           (-30.0 30.0)
           (-30.0 30.0)
  end
  begin
     id 14 
     name lowerneck
     direction -0.0733697 0.98508 0.155675   
     length 1.58204   
     axis 0 0 0   XYZ
    dof rx ry rz
    limits (-20.0 45.0)
           (-30.0 30.0)
           (-30.0 30.0)
  end
  begin
     id 15 
     name upperneck
     direction 0.0426554 0.993501 -0.105526   
     length 1.61222   
     axis 0 0 0   XYZ
    dof rx ry rz
    limits (-20.0 45.0)
           (-30.0 30.0)
           (-30.0 30.0)
  end
  begin
     id 16
     name head
     direction 0.020792 0.998384 -0.0528868  
     length 1.61527  
     axis 0 0 0   XYZ
    dof rx ry rz
    limits (-20.0 45.0)
           (-30.0 30.0)
           (-30.0 30.0)
  end
  begin
     id 17 
     name lclavicle
     direction 0.967109 0.155462 -0.201325  
     length 3.59357  
     axis 0 0 0   XYZ
    dof ry rz
    limits (-20.0 10.0)
           (0.0 20.0)
  end
  begin
     id 18 
     name lhumerus
     direction 1 -4.48968e-011 2.38195e-027   
     length 5.38154   
     axis 180 -30 -90   XYZ
    dof rx ry rz
    limits (-60.0 90.0)
           (-90.0 90.0)
           (-90.0 90.0)
  end
  begin
     id 19
     name lradius
     direction 1 -4.48961e-011 4.85371e-027   
     length 3.33312   
     axis 180 -30 -90   XYZ
    dof rx
    limits (-10.0 170.0)
  end
  begin
     id 20
     name lwrist
     direction 1 -4.48961e-011 4.76515e-027   
     length 1.66656   
     axis -3.27502e-015 90 90   XYZ
    dof ry
    limits (-180.0 0.0)
 end
  begin
     id 21 
     name lhand
     direction 1 -4.48951e-011 9.53074e-027   
     length 0.710789   
     axis -6.08098e-015 90 90   XYZ
    dof rx rz
    limits (-90.0 90.0)
           (-45.0 45.0)
  end
  begin
     id 22 
     name lfingers
     direction 1 -4.48953e-011 1.90613e-026   
     length 0.573057   
     axis -1.21619e-014 90 90   XYZ
    dof rx
    limits (0.0 90.0)
  end
  begin
     id 23
     name lthumb
     direction 0.707107 -6.34973e-011 0.707107   
     length 0.822798   
     axis -90 45 -9.86923e-015   XYZ
    dof rx rz
    limits (-45.0 45.0)
           (-45.0 45.0)
  end
  begin
     id 24 
     name rclavicle
     direction -0.9585 0.265289 -0.104398   
     length 3.42039  
     axis 0 0 0   XYZ 
    dof ry rz
    limits (-10.0 20.0)
           (-20.0 0.0)
  end
  begin
     id 25 
     name rhumerus
     direction -1 -4.48977e-011 2.21478e-027  
     length 5.16954   
     axis 180 30 90   XYZ
    dof rx ry rz
    limits (-90.0 60.0)
           (-90.0 90.0)
           (-90.0 90.0)
  end
  begin
     id 26 
     name rradius
     direction -1 -4.48967e-011 5.63677e-027   
     length 3.38287   
     axis 180 30 90   XYZ
    dof rx
    limits (-10.0 170.0)
  end
  begin
     id 27 
     name rwrist
     direction -1 -4.48967e-011 4.76501e-027   
     length 1.69144   
     axis -3.27502e-015 -90 -90   XYZ
    dof ry
    limits (-180.0 0.0)
  end
  begin
     id 28
     name rhand
     direction -1 -4.48902e-011 9.53292e-027   
     length 0.817967   
     axis -6.08098e-015 -90 -90   XYZ
    dof rx rz
    limits (-90.0 90.0)
           (-45.0 45.0)
  end
  begin
     id 29
     name rfingers
     direction -1 -4.49012e-011 1.90561e-026   
     length 0.659466   
     axis -1.21619e-014 -90 -90   XYZ
    dof rx
    limits (0.0 90.0)
  end
  begin
     id 30
     name rthumb
     direction -0.707107 -6.34944e-011 0.707107   
     length 0.946865   
     axis -90 -45 9.86923e-015   XYZ
    dof rx rz
    limits (-45.0 45.0)
           (-45.0 45.0)
  end
:hierarchy
  begin
    root lhipjoint rhipjoint lowerback
    lhipjoint lfemur
    lfemur ltibia
    ltibia lfoot
    lfoot ltoes
    rhipjoint rfemur
    rfemur rtibia
    rtibia rfoot
    rfoot rtoes
    lowerback upperback
    upperback thorax
    thorax lowerneck lclavicle rclavicle
    lowerneck upperneck
    upperneck head
    lclavicle lhumerus
    lhumerus lradius
    lradius lwrist
    lwrist lhand lthumb
    lhand lfingers
    rclavicle rhumerus
    rhumerus rradius
    rradius rwrist
    rwrist rhand rthumb
    rhand rfingers
  end

#!OML:ASF F:\twosubjects\two\wednesday\Session 1\Justin1.ASF
:FULLY-SPECIFIED
:DEGREES
146
root 2.80139 17.3404 6.38004 2.74844 -10.1288 -1.33443
lowerback 1.53594 0.935563 -0.158963
upperback -0.948856 1.28451 2.40864
thorax -1.89323 0.659623 2.521
lowerneck -13.771 -0.407612 -8.77202
upperneck 13.1014 0.190387 6.68578
head 6.2168 0.198124 3.60152
rclavicle 1.05107e-014 7.95139e-016
rhumerus -31.6949 -24.6821 -78.079
rradius 23.1515
rwrist -9.81656
rhand -16.5072 17.478
rfingers 7.12502
rthumb 9.71081 -12.2782
lclavicle 1.05107e-014 7.95139e-016
lhumerus -13.625 5.55678 81.9046
lradius 41.9423
lwrist 13.3238
lhand 8.02353 38.6027
lfingers 7.12502
lthumb 33.2494 65.55
rfemur 9.90068 2.1211 23.2125
rtibia 36.4194
rfoot 12.3425 8.62295
rtoes 5.78545
lfemur -34.318 4.86072 -20.7677
ltibia 35.2703
lfoot -1.83388 -8.74971
ltoes 19.1461
147
root 2.80034 17.3485 6.53893 2.55326 -10.088 -2.04371
lowerback 1.74542 1.11137 0.598568
upperback -0.659669 1.53621 2.58813
thorax -1.71044 0.77495 2.27061
lowerneck -13.4215 -0.628239 -9.03517
upperneck 12.3878 -0.0543024 6.61464
head 5.95255 0.0637543 3.58522
rclavicle 5.64051e-015 -9.54166e-015
rhumerus -30.5253 -25.3355 -78.4709
rradius 22.8641
rwrist -10.0365
rhand -16.3105 17.5344
rfingers 7.12502
rthumb 9.90065 -12.2128
lclavicle 5.64051e-015 -9.54166e-015
lhumerus -14.6501 6.27981 83.0004
lradius 40.4374
lwrist 12.2497
lhand 8.59344 39.8338
lfingers 7.12502
lthumb 33.7911 66.6636
rfemur 8.1363 2.06283 23.9262
rtibia 39.6352
rfoot 14.4208 8.67012
rtoes 3.96564
lfemur -33.5026 5.35852 -20.0756
ltibia 35.409
lfoot -2.63361 -9.66505
ltoes 19.7509
148
root 2.80906 17.377 6.68616 2.26129 -10.0289 -2.48647
lowerback 2.30516 1.18719 1.18018
upperback -0.537275 1.66435 2.65228
thorax -1.88909 0.832259 1.99543
lowerneck -13.1932 -0.718871 -9.25543
upperneck 12.192 -0.185636 6.86528
head 5.86299 0.00777658 3.68663
rclavicle -2.41648e-014 -5.96354e-015
rhumerus -29.3104 -25.183 -79.1739
rradius 22.3298
rwrist -10.6329
rhand -16.5343 17.645
rfingers 7.12502
rthumb 9.6847 -12.1124
lclavicle -2.41648e-014 -5.96354e-015
lhumerus -15.8359 6.78169 83.6939
lradius 38.7966
lwrist 11.8375
lhand 9.27238 41.3332
lfingers 7.12502
lthumb 34.4359 68.0191
rfemur 6.05114 1.95513 24.2884
rtibia 42.8553
rfoot 15.9401 8.76931
rtoes 3.39581
lfemur -32.6329 5.8443 -19.7599
ltibia 35.6018
lfoot -3.54374 -10.3943
ltoes 17.703
149
root 2.83819 17.373 6.88003 1.99286 -9.75775 -2.73619
lowerback 2.27139 1.17199 1.97438
upperback -0.448871 1.66133 2.57051
thorax -1.75434 0.821605 1.4683
lowerneck -13.0534 -0.822689 -9.62924
upperneck 12.5012 -0.348443 7.34793
head 5.95076 -0.0574251 3.89523
rclavicle -1.45113e-014 3.18055e-015
rhumerus -28.5046 -24.4207 -79.965
rradius 22.2546
rwrist -11.1923
rhand -17.3274 16.8413
rfingers 7.12502
rthumb 8.9194 -12.9502
lclavicle -1.45113e-014 3.18055e-015
lhumerus -17.4426 8.08644 84.2172
lradius 37.4605
lwrist 10.8552
lhand 9.84237 42.3417
lfingers 7.12502
lthumb 34.9768 68.9031
rfemur 5.10919 1.46911 24.1627
rtibia 45.7607
rfoot 15.53 8.9353
rtoes 4.10915
lfemur -31.646 5.93166 -19.7007
ltibia 35.7857
lfoot -4.16276 -10.8366
ltoes 18.7379
150
root 2.84963 17.4331 7.06585 1.75859 -9.59684 -2.37991
lowerback 2.09194 1.13291 1.82769
upperback -0.243037 1.5886 2.33482
thorax -1.43853 0.787328 1.31695
lowerneck -13.1771 -0.851919 -9.34879
upperneck 12.6939 -0.424886 7.25708
head 6.03871 -0.0880457 3.81674
rclavicle 1.00386e-014 -3.97569e-015
rhumerus -27.4051 -23.9215 -80.995
rradius 22.4064
rwrist -11.4687
rhand -17.4934 15.9431
rfingers 7.12502
rthumb 8.75918 -13.8552
lclavicle 1.00386e-014 -3.97569e-015
lhumerus -18.693 9.53401 84.4589
lradius 35.966
lwrist 9.86483
lhand 8.56368 42.0203
lfingers 7.12502
lthumb 33.7628 68.8564
rfemur 3.58415 1.37958 23.6318
rtibia 48.6157
rfoot 13.7585 8.64557
rtoes -0.151956
lfemur -30.6535 5.97659 -20.2221
ltibia 35.7165
lfoot -4.74485 -11.0794
ltoes 19.8432
151
root 2.8514 17.5052 7.24819 1.58623 -9.57455 -2.48379
lowerback 1.94175 1.11285 1.96915
upperback -0.0872667 1.55399 2.25457
thorax -1.18816 0.770124 1.16149
lowerneck -13.0456 -0.787615 -8.84848
upperneck 12.792 -0.406569 6.96602
head 6.04441 -0.0806136 3.64163
rclavicle -1.0461e-014 -7.55382e-015
rhumerus -26.3219 -23.2365 -82.0363
rradius 22.5412
rwrist -11.9956
rhand -16.7296 15.9444
rfingers 7.12502
rthumb 9.49629 -13.8216
lclavicle -1.0461e-014 -7.55382e-015
lhumerus -19.7795 10.4299 84.6137
lradius 33.9183
lwrist 9.00291
lhand 7.16852 41.4394
lfingers 7.12502
lthumb 32.4361 68.5569
rfemur 1.89619 1.48977 23.7354
rtibia 51.0787
rfoot 11.7156 7.30423
rtoes -2.57953
lfemur -29.6584 5.86326 -20.1642
ltibia 35.6515
lfoot -5.41288 -10.9286
ltoes 19.3891
152
root 2.86389 17.5377 7.43428 1.33241 -9.55335 -2.50483
lowerback 1.90992 1.17075 2.20722
upperback -0.0979578 1.63462 2.16198
thorax -1.17243 0.808667 0.931696
lowerneck -12.7029 -0.821444 -8.75083
upperneck 13.1243 -0.514382 6.9804
head 6.09934 -0.135378 3.62386
rclavicle -2.3879e-014 1.98785e-015
rhumerus -25.5965 -22.2944 -82.7354
rradius 22.5975
rwrist -12.7124
rhand -15.9974 16.098
rfingers 7.12502
rthumb 10.2026 -13.6346
lclavicle -2.3879e-014 1.98785e-015
lhumerus -20.9752 11.0597 84.8832
lradius 31.5185
lwrist 8.13788
lhand 5.84477 40.4741
lfingers 7.12502
lthumb 31.1754 67.842
rfemur 0.681602 1.4958 23.5841
rtibia 53.4462
rfoot 9.34992 5.51466
rtoes 0.842119
lfemur -28.4085 5.32072 -20.133
ltibia 35.2561
lfoot -5.72174 -10.4675
ltoes 20.3911
153
root 2.88886 17.5592 7.6059 0.996079 -9.33698 -1.76307
lowerback 1.95282 1.20929 1.79542
upperback -0.0643174 1.67438 1.8845
thorax -1.1653 0.830617 0.875725
lowerneck -12.6429 -0.955622 -8.82541
upperneck 13.5144 -0.71472 7.06498
head 6.22952 -0.233908 3.65205
rclavicle 1.4238e-014 1.07344e-014
rhumerus -24.6741 -21.6359 -83.2469
rradius 22.7022
rwrist -13.1571
rhand -15.6956 15.7769
rfingers 7.12502
rthumb 10.4938 -13.9411
lclavicle 1.4238e-014 1.07344e-014
lhumerus -21.8337 11.9134 85.1956
lradius 28.9412
lwrist 7.09618
lhand 4.55343 39.3992
lfingers 7.12502
lthumb 29.9439 66.9966
rfemur -0.705068 0.805252 22.4609
rtibia 55.5365
rfoot 7.02024 4.55629
rtoes 0.152325
lfemur -27.2265 4.55879 -20.9718
ltibia 34.8076
lfoot -5.89979 -10.1447
ltoes 21.9775
154
root 2.89774 17.6033 7.75973 0.756431 -9.21967 -1.05512
lowerback 2.22635 1.35376 1.17107
upperback -0.18106 1.86047 1.73299
thorax -1.45349 0.926397 1.05539
lowerneck -12.2862 -1.14835 -9.16596
upperneck 13.6934 -0.966933 7.17567
head 6.24839 -0.372354 3.72338
rclavicle -1.44243e-014 -2.78299e-015
rhumerus -23.9487 -21.111 -83.4301
rradius 23.0562
rwrist -13.4791
rhand -15.4982 15.143
rfingers 7.12502
rthumb 10.6842 -14.5654
lclavicle -1.44243e-014 -2.78299e-015
lhumerus -23.0062 13.6485 85.3307
lradius 26.7497
lwrist 4.31278
lhand 4.7425 38.9555
lfingers 7.12502
lthumb 30.1243 66.5202
rfemur -2.55462 0.571281 21.546
rtibia 57.5127
rfoot 5.11317 3.25107
rtoes 1.74683
lfemur -26.3055 3.90798 -21.7047
ltibia 34.5558
lfoot -6.18437 -9.79807
ltoes 22.8494
155
root 2.86415 17.6523 7.92285 0.599328 -9.67963 -1.61995
lowerback 2.41679 1.70735 1.3284
upperback -0.12987 2.34306 1.96339
thorax -1.51626 1.16683 1.18172
lowerneck -12.1084 -1.34838 -9.39746
upperneck 13.7869 -1.25954 7.45287
head 6.27541 -0.507989 3.82729
rclavicle -6.21202e-015 8.34896e-015
rhumerus -22.8704 -20.9232 -83.7247
rradius 23.1677
rwrist -13.5002
rhand -15.3528 14.5847
rfingers 7.12502
rthumb 10.8244 -15.1164
lclavicle -6.21202e-015 8.34896e-015
lhumerus -24.1707 15.7382 85.0727
lradius 24.8839
lwrist 0.628754
lhand 5.62066 38.5038
lfingers 7.12502
lthumb 30.9618 65.9126
rfemur -4.36877 1.28619 22.5199
rtibia 59.0596
rfoot 3.36686 1.48327
rtoes 1.55937
lfemur -25.4801 3.84795 -20.9142
ltibia 34.5727
lfoot -6.82251 -9.34086
ltoes 21.1908
156
root 2.81177 17.6734 8.08683 0.217259 -10.9375 -4.04876
lowerback 2.78459 2.19323 3.07688
upperback 0.528113 3.0405 2.72613
thorax -1.00615 1.51089 0.965181
lowerneck -12.8349 -1.50779 -9.61284
upperneck 13.9061 -1.47065 8.05005
head 6.46221 -0.561124 4.0449
rclavicle 3.15571e-015 -5.1684e-015
rhumerus -20.8398 -20.7318 -84.5223
rradius 23.2797
rwrist -13.5113
rhand -11.0185 23.2068
rfingers 7.12502
rthumb 15.0026 -6.22968
lclavicle 3.15571e-015 -5.1684e-015
lhumerus -24.5051 17.5105 84.7781
lradius 23
lwrist -2.12018
lhand 6.00286 38.6278
lfingers 7.12502
lthumb 31.326 65.9667
rfemur -5.57998 2.84838 25.8383
rtibia 60.2162
rfoot 1.77683 -0.756203
rtoes -0.180389
lfemur -24.2795 3.9093 -17.776
ltibia 34.8099
lfoot -7.20485 -8.48899
ltoes 24.2777
157
root 2.80718 17.6358 8.23234 -0.227741 -11.2115 -6.11169
lowerback 3.46141 2.24773 4.95953
upperback 0.990207 3.19498 3.34609
thorax -0.841087 1.58788 0.535032
lowerneck -13.3685 -1.60712 -9.65245
upperneck 14.0481 -1.58356 8.21857
head 6.61187 -0.594601 4.10115
rclavicle -2.45251e-014 -4.29375e-014
rhumerus -19.25 -19.886 -85.24
rradius 23.8896
rwrist -14.1348
rhand -8.75607 27.2746
rfingers 7.12502
rthumb 17.1812 -1.98582
lclavicle -2.45251e-014 -4.29375e-014
lhumerus -25.3102 19.8878 84.1873
lradius 21.6417
lwrist -5.00617
lhand 5.98524 39.668
lfingers 7.12502
lthumb 31.3093 67.0101
rfemur -5.95525 2.68816 28.2732
rtibia 60.6298
rfoot 0.134321 -2.18762
rtoes -4.6544
lfemur -23.4982 2.84585 -15.154
ltibia 35.4849
lfoot -6.94974 -8.02337
ltoes 35.1383
158
root 2.80493 17.6627 8.38886 -0.613541 -11.4367 -7.54304
lowerback 4.24882 2.34837 6.30537
upperback 0.965149 3.45178 3.76717
thorax -1.24695 1.70256 0.178594
lowerneck -12.9553 -1.71528 -9.29378
upperneck 14.1602 -1.77136 7.76714
head 6.58776 -0.711845 3.87475
rclavicle -9.81499e-016 3.18055e-015
rhumerus -18.6247 -19.247 -85.4635
rradius 24.6402
rwrist -14.7695
rhand -8.67391 26.8339
rfingers 7.12502
rthumb 17.2603 -2.41959
lclavicle -9.81499e-016 3.18055e-015
lhumerus -27.2662 22.105 83.1714
lradius 20.7378
lwrist -8.02345
lhand 5.08338 40.0981
lfingers 7.12502
lthumb 30.4495 67.603
rfemur -6.81423 2.67113 29.8172
rtibia 60.7906
rfoot -1.06658 -3.42828
rtoes -3.57286
lfemur -23.097 2.42545 -13.5002
ltibia 36.5148
lfoot -7.35037 -7.86554
ltoes 38.0085
159
root 2.79782 17.7336 8.55027 -0.958655 -11.5777 -7.96611
lowerback 4.72642 2.48892 6.61716
upperback 0.870117 3.70829 3.94261
thorax -1.594 1.81865 0.14958
lowerneck -12.279 -1.82542 -9.21302
upperneck 14.0322 -1.97548 7.66638
head 6.44691 -0.826086 3.80578
rclavicle -1.06474e-014 -1.94809e-014
rhumerus -18.0333 -18.9938 -85.4532
rradius 25.3753
rwrist -15.1192
rhand -9.88997 23.6265
rfingers 7.12502
rthumb 16.0896 -5.72559
lclavicle -1.06474e-014 -1.94809e-014
lhumerus -29.1898 23.2056 82.3616
lradius 19.6758
lwrist -9.77575
lhand 4.09319 40.3062
lfingers 7.12502
lthumb 29.5047 67.982
rfemur -7.94791 2.76755 30.2391
rtibia 60.8739
rfoot -2.34365 -4.33935
rtoes -0.498781
lfemur -22.9651 3.66168 -13.3922
ltibia 37.2452
lfoot -8.35311 -8.15995
ltoes 29.8965
160
root 2.79436 17.7877 8.6993 -1.20999 -11.6114 -7.86287
lowerback 5.05685 2.57274 6.34808
upperback 0.848854 3.84091 3.96946
thorax -1.81479 1.88066 0.300324
lowerneck -12.2282 -1.90385 -9.17832
upperneck 13.9922 -2.11247 7.79109
head 6.43838 -0.881117 3.82762
rclavicle -5.24295e-015 -2.38542e-014
rhumerus -17.1229 -18.3154 -85.5973
rradius 26.0685
rwrist -15.8005
rhand -11.8282 19.4047
rfingers 7.12502
rthumb 14.2225 -10.0884
lclavicle -5.24295e-015 -2.38542e-014
lhumerus -30.8892 24.1999 81.5401
lradius 18.845
lwrist -10.779
lhand 3.76378 41.0573
lfingers 7.12502
lthumb 29.1902 68.7882
rfemur -9.31795 2.81485 30.0592
rtibia 61.0436
rfoot -3.77468 -4.91874
rtoes 3.37793
lfemur -21.4225 1.99614 -13.0428
ltibia 37.739
lfoot -9.99389 -7.68901
ltoes 36.7792
